<?xml version="1.0" encoding="UTF-8"?>
<svg width="1200pt" height="1200pt" version="1.1" viewBox="0 0 1200 1200" xmlns="http://www.w3.org/2000/svg">
 <path d="m1200 593.64c-3.2383-21.359-43.078-36.719-108-45.238-55.32-49.441-347.28-5.7617-603 24-79.078 9.3594-153.24 21.359-218.16 34.68l-198.84-179.64h-72l87.121 231.12c-20.082 7.0156-38.855 17.312-55.562 30.48 0 7.5586 0 15.84-0.71875 24 38.16 10.441 182.04 21 208.56 26.879 115.32 4.5586 75.84 1.3203 210.84-3.4805l22.32-0.96094 20.16-0.83984c7.6797 21.121 55.32 37.441 112.92 37.441 16.957-0.14062 33.879-1.5039 50.641-4.0781 5.7734-1.2461 10.059-6.1133 10.559-12v-2.5195c13.828 1.4883 27.73 2.207 41.641 2.1602 16.887-0.28906 33.75-1.4531 50.52-3.4805 6.1055-0.67578 10.719-5.8555 10.68-12v-21.359-2.0391c107.36-10.336 214.14-26.074 319.92-47.16 72-25.32 113.88-52.32 110.4-75.961z"/>
</svg>
